<?xml version="1.0" encoding="UTF-8" standalone="no"?>
<!DOCTYPE svg PUBLIC "-//W3C//DTD SVG 1.1//EN"
 "http://www.w3.org/Graphics/SVG/1.1/DTD/svg11.dtd">
<!-- Generated by graphviz version 2.38.0 (20140413.2041)
 -->
<!-- Title: g Pages: 1 -->
<svg width="278pt" height="272pt"
 viewBox="0.00 0.00 278.00 272.00" xmlns="http://www.w3.org/2000/svg" xmlns:xlink="http://www.w3.org/1999/xlink">
<g id="graph0" class="graph" transform="scale(1 1) rotate(0) translate(4 268)">
<title>g</title>
<polygon fill="white" stroke="none" points="-4,4 -4,-268 274,-268 274,4 -4,4"/>
<!-- O -->
<g id="node1" class="node"><title>O</title>
<polygon fill="lightgrey" stroke="black" points="108,-240.5 108,-263.5 162,-263.5 162,-240.5 108,-240.5"/>
<text text-anchor="middle" x="135" y="-248.3" font-family="Times,serif" font-size="14.00">O</text>
</g>
<!-- a0 -->
<g id="node8" class="node"><title>a0</title>
<polygon fill="none" stroke="#008b00" points="72,-180.5 72,-203.5 126,-203.5 126,-180.5 72,-180.5"/>
<text text-anchor="middle" x="99" y="-188.3" font-family="Times,serif" font-size="14.00">A</text>
</g>
<!-- O&#45;&gt;a0 -->
<g id="edge1" class="edge"><title>O&#45;&gt;a0</title>
<path fill="none" stroke="black" d="M128.397,-240.362C123.525,-232.513 116.762,-221.616 110.95,-212.253"/>
<polygon fill="black" stroke="black" points="113.809,-210.221 105.561,-203.571 107.861,-213.913 113.809,-210.221"/>
</g>
<!-- b0 -->
<g id="node11" class="node"><title>b0</title>
<polygon fill="none" stroke="#8b0000" points="144,-180.5 144,-203.5 198,-203.5 198,-180.5 144,-180.5"/>
<text text-anchor="middle" x="171" y="-188.3" font-family="Times,serif" font-size="14.00">B</text>
</g>
<!-- O&#45;&gt;b0 -->
<g id="edge2" class="edge"><title>O&#45;&gt;b0</title>
<path fill="none" stroke="black" d="M141.603,-240.362C146.475,-232.513 153.238,-221.616 159.05,-212.253"/>
<polygon fill="black" stroke="black" points="162.139,-213.913 164.439,-203.571 156.191,-210.221 162.139,-213.913"/>
</g>
<!-- o1 -->
<g id="node2" class="node"><title>o1</title>
<polygon fill="lightgrey" stroke="black" points="0,-120.5 0,-143.5 54,-143.5 54,-120.5 0,-120.5"/>
<text text-anchor="middle" x="27" y="-128.3" font-family="Times,serif" font-size="14.00">O</text>
</g>
<!-- b3 -->
<g id="node13" class="node"><title>b3</title>
<polygon fill="none" stroke="#8b0000" points="0,-60.5 0,-83.5 54,-83.5 54,-60.5 0,-60.5"/>
<text text-anchor="middle" x="27" y="-68.3" font-family="Times,serif" font-size="14.00">B</text>
</g>
<!-- o1&#45;&gt;b3 -->
<g id="edge9" class="edge"><title>o1&#45;&gt;b3</title>
<path fill="none" stroke="black" d="M27,-120.362C27,-112.922 27,-102.743 27,-93.7276"/>
<polygon fill="black" stroke="black" points="30.5001,-93.5706 27,-83.5707 23.5001,-93.5707 30.5001,-93.5706"/>
</g>
<!-- o2 -->
<g id="node3" class="node"><title>o2</title>
<polygon fill="lightgrey" stroke="black" points="144,-120.5 144,-143.5 198,-143.5 198,-120.5 144,-120.5"/>
<text text-anchor="middle" x="171" y="-128.3" font-family="Times,serif" font-size="14.00">O</text>
</g>
<!-- a3 -->
<g id="node10" class="node"><title>a3</title>
<polygon fill="none" stroke="#008b00" points="144,-60.5 144,-83.5 198,-83.5 198,-60.5 144,-60.5"/>
<text text-anchor="middle" x="171" y="-68.3" font-family="Times,serif" font-size="14.00">A</text>
</g>
<!-- o2&#45;&gt;a3 -->
<g id="edge10" class="edge"><title>o2&#45;&gt;a3</title>
<path fill="none" stroke="black" d="M171,-120.362C171,-112.922 171,-102.743 171,-93.7276"/>
<polygon fill="black" stroke="black" points="174.5,-93.5706 171,-83.5707 167.5,-93.5707 174.5,-93.5706"/>
</g>
<!-- o3 -->
<g id="node4" class="node"><title>o3</title>
<polygon fill="lightgrey" stroke="black" points="72,-60.5 72,-83.5 126,-83.5 126,-60.5 72,-60.5"/>
<text text-anchor="middle" x="99" y="-68.3" font-family="Times,serif" font-size="14.00">O</text>
</g>
<!-- o4 -->
<g id="node5" class="node"><title>o4</title>
<polygon fill="lightgrey" stroke="black" points="216,-60.5 216,-83.5 270,-83.5 270,-60.5 216,-60.5"/>
<text text-anchor="middle" x="243" y="-68.3" font-family="Times,serif" font-size="14.00">O</text>
</g>
<!-- o5 -->
<g id="node6" class="node"><title>o5</title>
<polygon fill="lightgrey" stroke="black" points="144,-0.5 144,-23.5 198,-23.5 198,-0.5 144,-0.5"/>
<text text-anchor="middle" x="171" y="-8.3" font-family="Times,serif" font-size="14.00">O</text>
</g>
<!-- o6 -->
<g id="node7" class="node"><title>o6</title>
<polygon fill="lightgrey" stroke="black" points="0,-0.5 0,-23.5 54,-23.5 54,-0.5 0,-0.5"/>
<text text-anchor="middle" x="27" y="-8.3" font-family="Times,serif" font-size="14.00">O</text>
</g>
<!-- a0&#45;&gt;o1 -->
<g id="edge3" class="edge"><title>a0&#45;&gt;o1</title>
<path fill="none" stroke="black" d="M85.7941,-180.362C75.2388,-171.859 60.2423,-159.779 48.0371,-149.947"/>
<polygon fill="black" stroke="black" points="50.1054,-147.118 40.1222,-143.571 45.7141,-152.57 50.1054,-147.118"/>
</g>
<!-- b1 -->
<g id="node12" class="node"><title>b1</title>
<polygon fill="none" stroke="#8b0000" points="72,-120.5 72,-143.5 126,-143.5 126,-120.5 72,-120.5"/>
<text text-anchor="middle" x="99" y="-128.3" font-family="Times,serif" font-size="14.00">B</text>
</g>
<!-- a0&#45;&gt;b1 -->
<g id="edge4" class="edge"><title>a0&#45;&gt;b1</title>
<path fill="none" stroke="black" d="M99,-180.362C99,-172.922 99,-162.743 99,-153.728"/>
<polygon fill="black" stroke="black" points="102.5,-153.571 99,-143.571 95.5001,-153.571 102.5,-153.571"/>
</g>
<!-- a1 -->
<g id="node9" class="node"><title>a1</title>
<polygon fill="none" stroke="#008b00" points="216,-120.5 216,-143.5 270,-143.5 270,-120.5 216,-120.5"/>
<text text-anchor="middle" x="243" y="-128.3" font-family="Times,serif" font-size="14.00">A</text>
</g>
<!-- a1&#45;&gt;o4 -->
<g id="edge7" class="edge"><title>a1&#45;&gt;o4</title>
<path fill="none" stroke="black" d="M243,-120.362C243,-112.922 243,-102.743 243,-93.7276"/>
<polygon fill="black" stroke="black" points="246.5,-93.5706 243,-83.5707 239.5,-93.5707 246.5,-93.5706"/>
</g>
<!-- a3&#45;&gt;o5 -->
<g id="edge11" class="edge"><title>a3&#45;&gt;o5</title>
<path fill="none" stroke="black" d="M171,-60.3619C171,-52.9219 171,-42.7427 171,-33.7276"/>
<polygon fill="black" stroke="black" points="174.5,-33.5706 171,-23.5707 167.5,-33.5707 174.5,-33.5706"/>
</g>
<!-- b0&#45;&gt;o2 -->
<g id="edge5" class="edge"><title>b0&#45;&gt;o2</title>
<path fill="none" stroke="black" d="M171,-180.362C171,-172.922 171,-162.743 171,-153.728"/>
<polygon fill="black" stroke="black" points="174.5,-153.571 171,-143.571 167.5,-153.571 174.5,-153.571"/>
</g>
<!-- b0&#45;&gt;a1 -->
<g id="edge6" class="edge"><title>b0&#45;&gt;a1</title>
<path fill="none" stroke="black" d="M184.206,-180.362C194.761,-171.859 209.758,-159.779 221.963,-149.947"/>
<polygon fill="black" stroke="black" points="224.286,-152.57 229.878,-143.571 219.895,-147.118 224.286,-152.57"/>
</g>
<!-- b1&#45;&gt;o3 -->
<g id="edge8" class="edge"><title>b1&#45;&gt;o3</title>
<path fill="none" stroke="black" d="M99,-120.362C99,-112.922 99,-102.743 99,-93.7276"/>
<polygon fill="black" stroke="black" points="102.5,-93.5706 99,-83.5707 95.5001,-93.5707 102.5,-93.5706"/>
</g>
<!-- b3&#45;&gt;o6 -->
<g id="edge12" class="edge"><title>b3&#45;&gt;o6</title>
<path fill="none" stroke="black" d="M27,-60.3619C27,-52.9219 27,-42.7427 27,-33.7276"/>
<polygon fill="black" stroke="black" points="30.5001,-33.5706 27,-23.5707 23.5001,-33.5707 30.5001,-33.5706"/>
</g>
</g>
</svg>
