<?xml version="1.0" encoding="UTF-8" standalone="no"?>
<!DOCTYPE svg PUBLIC "-//W3C//DTD SVG 1.1//EN"
 "http://www.w3.org/Graphics/SVG/1.1/DTD/svg11.dtd">
<!-- Generated by graphviz version 2.38.0 (20140413.2041)
 -->
<!-- Title: G Pages: 1 -->
<svg width="512pt" height="78pt"
 viewBox="0.00 0.00 512.00 78.00" xmlns="http://www.w3.org/2000/svg" xmlns:xlink="http://www.w3.org/1999/xlink">
<g id="graph0" class="graph" transform="scale(1 1) rotate(0) translate(4 74)">
<title>G</title>
<polygon fill="white" stroke="none" points="-4,4 -4,-74 508,-74 508,4 -4,4"/>
<g id="clust1" class="cluster"><title>cluster_0</title>
<polygon fill="#11b16e" stroke="#11b16e" points="82,-8 82,-62 242,-62 242,-8 82,-8"/>
</g>
<g id="clust2" class="cluster"><title>cluster_1</title>
<polygon fill="#f5e822" stroke="#f5e822" points="352,-8 352,-62 422,-62 422,-8 352,-8"/>
</g>
<!-- n0 -->
<g id="node1" class="node"><title>n0</title>
<polygon fill="lightgrey" stroke="black" points="0,-17 0,-53 54,-53 54,-17 0,-17"/>
<text text-anchor="middle" x="27" y="-31.3" font-family="Times,serif" font-size="14.00">O</text>
</g>
<!-- C -->
<g id="node4" class="node"><title>C</title>
<polygon fill="white" stroke="white" points="90,-17 90,-53 144,-53 144,-17 90,-17"/>
<text text-anchor="middle" x="117" y="-31.3" font-family="Times,serif" font-size="14.00">C</text>
</g>
<!-- n0&#45;&gt;C -->
<g id="edge2" class="edge"><title>n0&#45;&gt;C</title>
<path fill="none" stroke="black" d="M54.4029,-35C62.3932,-35 71.3106,-35 79.8241,-35"/>
<polygon fill="black" stroke="black" points="79.919,-38.5001 89.919,-35 79.919,-31.5001 79.919,-38.5001"/>
</g>
<!-- n1 -->
<g id="node2" class="node"><title>n1</title>
<polygon fill="lightgrey" stroke="black" points="270,-17 270,-53 324,-53 324,-17 270,-17"/>
<text text-anchor="middle" x="297" y="-31.3" font-family="Times,serif" font-size="14.00">O</text>
</g>
<!-- A -->
<g id="node6" class="node"><title>A</title>
<polygon fill="white" stroke="white" points="360,-17 360,-53 414,-53 414,-17 360,-17"/>
<text text-anchor="middle" x="387" y="-31.3" font-family="Times,serif" font-size="14.00">A</text>
</g>
<!-- n1&#45;&gt;A -->
<g id="edge4" class="edge"><title>n1&#45;&gt;A</title>
<path fill="none" stroke="black" d="M324.403,-35C332.393,-35 341.311,-35 349.824,-35"/>
<polygon fill="black" stroke="black" points="349.919,-38.5001 359.919,-35 349.919,-31.5001 349.919,-38.5001"/>
</g>
<!-- n2 -->
<g id="node3" class="node"><title>n2</title>
<polygon fill="lightgrey" stroke="black" points="450,-17 450,-53 504,-53 504,-17 450,-17"/>
<text text-anchor="middle" x="477" y="-31.3" font-family="Times,serif" font-size="14.00">O</text>
</g>
<!-- B -->
<g id="node5" class="node"><title>B</title>
<polygon fill="white" stroke="white" points="180,-17 180,-53 234,-53 234,-17 180,-17"/>
<text text-anchor="middle" x="207" y="-31.3" font-family="Times,serif" font-size="14.00">B</text>
</g>
<!-- C&#45;&gt;B -->
<g id="edge1" class="edge"><title>C&#45;&gt;B</title>
<path fill="none" stroke="black" d="M144.403,-35C152.393,-35 161.311,-35 169.824,-35"/>
<polygon fill="black" stroke="black" points="169.919,-38.5001 179.919,-35 169.919,-31.5001 169.919,-38.5001"/>
</g>
<!-- B&#45;&gt;n1 -->
<g id="edge3" class="edge"><title>B&#45;&gt;n1</title>
<path fill="none" stroke="black" d="M234.403,-35C242.393,-35 251.311,-35 259.824,-35"/>
<polygon fill="black" stroke="black" points="259.919,-38.5001 269.919,-35 259.919,-31.5001 259.919,-38.5001"/>
</g>
<!-- A&#45;&gt;n2 -->
<g id="edge5" class="edge"><title>A&#45;&gt;n2</title>
<path fill="none" stroke="black" d="M414.403,-35C422.393,-35 431.311,-35 439.824,-35"/>
<polygon fill="black" stroke="black" points="439.919,-38.5001 449.919,-35 439.919,-31.5001 439.919,-38.5001"/>
</g>
</g>
</svg>
