<?xml version="1.0" encoding="UTF-8" standalone="no"?>
<!DOCTYPE svg PUBLIC "-//W3C//DTD SVG 1.1//EN"
 "http://www.w3.org/Graphics/SVG/1.1/DTD/svg11.dtd">
<!-- Generated by graphviz version 2.38.0 (20140413.2041)
 -->
<!-- Title: B Pages: 1 -->
<svg width="134pt" height="152pt"
 viewBox="0.00 0.00 134.00 152.00" xmlns="http://www.w3.org/2000/svg" xmlns:xlink="http://www.w3.org/1999/xlink">
<g id="graph0" class="graph" transform="scale(1 1) rotate(0) translate(4 148)">
<title>B</title>
<polygon fill="white" stroke="none" points="-4,4 -4,-148 130,-148 130,4 -4,4"/>
<!-- A -->
<g id="node1" class="node"><title>A</title>
<polygon fill="none" stroke="black" points="72,-120.5 72,-143.5 126,-143.5 126,-120.5 72,-120.5"/>
<text text-anchor="middle" x="99" y="-128.3" font-family="Times,serif" font-size="14.00">A</text>
</g>
<!-- B -->
<g id="node2" class="node"><title>B</title>
<polygon fill="none" stroke="black" points="17,-60.5 17,-83.5 71,-83.5 71,-60.5 17,-60.5"/>
<text text-anchor="middle" x="44" y="-68.3" font-family="Times,serif" font-size="14.00">B</text>
</g>
<!-- A&#45;&gt;B -->
<g id="edge1" class="edge"><title>A&#45;&gt;B</title>
<path fill="none" stroke="black" d="M88.9122,-120.362C81.1592,-112.186 70.2696,-100.702 61.1549,-91.0907"/>
<polygon fill="black" stroke="black" points="63.4445,-88.4186 54.0239,-83.5707 58.3651,-93.2352 63.4445,-88.4186"/>
</g>
<!-- C -->
<g id="node4" class="node"><title>C</title>
<polygon fill="none" stroke="black" points="44,-0.5 44,-23.5 98,-23.5 98,-0.5 44,-0.5"/>
<text text-anchor="middle" x="71" y="-8.3" font-family="Times,serif" font-size="14.00">C</text>
</g>
<!-- B&#45;&gt;C -->
<g id="edge3" class="edge"><title>B&#45;&gt;C</title>
<path fill="none" stroke="black" d="M48.9522,-60.3619C52.5298,-52.6766 57.4681,-42.0686 61.7642,-32.8399"/>
<polygon fill="black" stroke="black" points="65.0319,-34.1136 66.0792,-23.5707 58.6858,-31.1594 65.0319,-34.1136"/>
</g>
<!-- O -->
<g id="node3" class="node"><title>O</title>
<polygon fill="none" stroke="black" points="0,-120.5 0,-143.5 54,-143.5 54,-120.5 0,-120.5"/>
<text text-anchor="middle" x="27" y="-128.3" font-family="Times,serif" font-size="14.00">O</text>
</g>
<!-- O&#45;&gt;B -->
<g id="edge2" class="edge"><title>O&#45;&gt;B</title>
<path fill="none" stroke="black" d="M30.1181,-120.362C32.3227,-112.84 35.348,-102.519 38.0117,-93.4308"/>
<polygon fill="black" stroke="black" points="41.4476,-94.1514 40.9017,-83.5707 34.7302,-92.1825 41.4476,-94.1514"/>
</g>
<!-- C&#45;&gt;A -->
<g id="edge4" class="edge"><title>C&#45;&gt;A</title>
<path fill="none" stroke="black" d="M73.4971,-23.5236C78.1014,-42.9272 88.007,-84.6724 94.028,-110.047"/>
<polygon fill="black" stroke="black" points="90.7017,-111.189 96.416,-120.11 97.5126,-109.572 90.7017,-111.189"/>
</g>
</g>
</svg>
