<?xml version="1.0" encoding="UTF-8" standalone="no"?>
<!DOCTYPE svg PUBLIC "-//W3C//DTD SVG 1.1//EN"
 "http://www.w3.org/Graphics/SVG/1.1/DTD/svg11.dtd">
<!-- Generated by graphviz version 2.38.0 (20140413.2041)
 -->
<!-- Title: G Pages: 1 -->
<svg width="242pt" height="44pt"
 viewBox="0.00 0.00 242.00 44.00" xmlns="http://www.w3.org/2000/svg" xmlns:xlink="http://www.w3.org/1999/xlink">
<g id="graph0" class="graph" transform="scale(1 1) rotate(0) translate(4 40)">
<title>G</title>
<polygon fill="white" stroke="none" points="-4,4 -4,-40 238,-40 238,4 -4,4"/>
<!-- a -->
<g id="node1" class="node"><title>a</title>
<ellipse fill="none" stroke="black" cx="27" cy="-18" rx="27" ry="18"/>
<text text-anchor="middle" x="27" y="-14.3" font-family="Times,serif" font-size="14.00">a</text>
</g>
<!-- b -->
<g id="node2" class="node"><title>b</title>
<ellipse fill="none" stroke="black" cx="117" cy="-18" rx="27" ry="18"/>
<text text-anchor="middle" x="117" y="-14.3" font-family="Times,serif" font-size="14.00">b</text>
</g>
<!-- a&#45;&gt;b -->
<g id="edge1" class="edge"><title>a&#45;&gt;b</title>
<path fill="none" stroke="black" d="M54.4029,-18C62.3932,-18 71.3106,-18 79.8241,-18"/>
<polygon fill="black" stroke="black" points="79.919,-21.5001 89.919,-18 79.919,-14.5001 79.919,-21.5001"/>
</g>
<!-- c -->
<g id="node3" class="node"><title>c</title>
<ellipse fill="none" stroke="black" cx="207" cy="-18" rx="27" ry="18"/>
<text text-anchor="middle" x="207" y="-14.3" font-family="Times,serif" font-size="14.00">c</text>
</g>
<!-- b&#45;&gt;c -->
<g id="edge2" class="edge"><title>b&#45;&gt;c</title>
<path fill="none" stroke="black" d="M144.403,-18C152.393,-18 161.311,-18 169.824,-18"/>
<polygon fill="black" stroke="black" points="169.919,-21.5001 179.919,-18 169.919,-14.5001 169.919,-21.5001"/>
</g>
</g>
</svg>
