<?xml version="1.0" encoding="UTF-8" standalone="no"?>
<!DOCTYPE svg PUBLIC "-//W3C//DTD SVG 1.1//EN"
 "http://www.w3.org/Graphics/SVG/1.1/DTD/svg11.dtd">
<!-- Generated by graphviz version 2.38.0 (20140413.2041)
 -->
<!-- Title: g Pages: 1 -->
<svg width="117pt" height="152pt"
 viewBox="0.00 0.00 117.00 152.00" xmlns="http://www.w3.org/2000/svg" xmlns:xlink="http://www.w3.org/1999/xlink">
<g id="graph0" class="graph" transform="scale(1 1) rotate(0) translate(4 148)">
<title>g</title>
<polygon fill="white" stroke="none" points="-4,4 -4,-148 113,-148 113,4 -4,4"/>
<!-- O -->
<g id="node1" class="node"><title>O</title>
<polygon fill="lightgrey" stroke="black" points="55,-120.5 55,-143.5 109,-143.5 109,-120.5 55,-120.5"/>
<text text-anchor="middle" x="82" y="-128.3" font-family="Times,serif" font-size="14.00">O</text>
</g>
<!-- a0 -->
<g id="node2" class="node"><title>a0</title>
<polygon fill="none" stroke="#008b00" points="0,-60.5 0,-83.5 54,-83.5 54,-60.5 0,-60.5"/>
<text text-anchor="middle" x="27" y="-68.3" font-family="Times,serif" font-size="14.00">A</text>
</g>
<!-- O&#45;&#45;a0 -->
<g id="edge1" class="edge"><title>O&#45;&#45;a0</title>
<path fill="none" stroke="black" d="M71.9122,-120.362C61.9884,-109.897 46.9255,-94.0124 37.0239,-83.5707"/>
</g>
<!-- b0 -->
<g id="node3" class="node"><title>b0</title>
<polygon fill="none" stroke="#8b0000" points="55,-0.5 55,-23.5 109,-23.5 109,-0.5 55,-0.5"/>
<text text-anchor="middle" x="82" y="-8.3" font-family="Times,serif" font-size="14.00">B</text>
</g>
<!-- O&#45;&#45;b0 -->
<g id="edge2" class="edge"><title>O&#45;&#45;b0</title>
<path fill="none" stroke="black" d="M82,-120.11C82,-97.5168 82,-45.7986 82,-23.5236"/>
</g>
<!-- a0&#45;&#45;b0 -->
<g id="edge3" class="edge"><title>a0&#45;&#45;b0</title>
<path fill="none" stroke="black" d="M37.0878,-60.3619C47.0116,-49.8968 62.0745,-34.0124 71.9761,-23.5707"/>
</g>
</g>
</svg>
