<?xml version="1.0" encoding="UTF-8" standalone="no"?>
<!DOCTYPE svg PUBLIC "-//W3C//DTD SVG 1.1//EN"
 "http://www.w3.org/Graphics/SVG/1.1/DTD/svg11.dtd">
<!-- Generated by graphviz version 2.38.0 (20140413.2041)
 -->
<!-- Title: g Pages: 1 -->
<svg width="155pt" height="212pt"
 viewBox="0.00 0.00 155.00 212.00" xmlns="http://www.w3.org/2000/svg" xmlns:xlink="http://www.w3.org/1999/xlink">
<g id="graph0" class="graph" transform="scale(1 1) rotate(0) translate(4 208)">
<title>g</title>
<polygon fill="white" stroke="none" points="-4,4 -4,-208 151,-208 151,4 -4,4"/>
<!-- O -->
<g id="node1" class="node"><title>O</title>
<polygon fill="lightgrey" stroke="black" points="93,-180.5 93,-203.5 147,-203.5 147,-180.5 93,-180.5"/>
<text text-anchor="middle" x="120" y="-188.3" font-family="Times,serif" font-size="14.00">O</text>
</g>
<!-- a0 -->
<g id="node2" class="node"><title>a0</title>
<polygon fill="none" stroke="#008b00" points="0,-120.5 0,-143.5 54,-143.5 54,-120.5 0,-120.5"/>
<text text-anchor="middle" x="27" y="-128.3" font-family="Times,serif" font-size="14.00">A</text>
</g>
<!-- O&#45;&#45;a0 -->
<g id="edge1" class="edge"><title>O&#45;&#45;a0</title>
<path fill="none" stroke="black" d="M102.942,-180.362C86.1622,-169.897 60.6922,-154.012 43.9495,-143.571"/>
</g>
<!-- b0 -->
<g id="node3" class="node"><title>b0</title>
<polygon fill="none" stroke="#8b0000" points="0,-0.5 0,-23.5 54,-23.5 54,-0.5 0,-0.5"/>
<text text-anchor="middle" x="27" y="-8.3" font-family="Times,serif" font-size="14.00">B</text>
</g>
<!-- O&#45;&#45;b0 -->
<g id="edge2" class="edge"><title>O&#45;&#45;b0</title>
<path fill="none" stroke="black" d="M114.041,-180.466C97.2833,-148.032 49.8733,-56.2709 33.0298,-23.6705"/>
</g>
<!-- c0 -->
<g id="node4" class="node"><title>c0</title>
<polygon fill="none" stroke="#0000cd" points="74,-60.5 74,-83.5 128,-83.5 128,-60.5 74,-60.5"/>
<text text-anchor="middle" x="101" y="-68.3" font-family="Times,serif" font-size="14.00">C</text>
</g>
<!-- O&#45;&#45;c0 -->
<g id="edge3" class="edge"><title>O&#45;&#45;c0</title>
<path fill="none" stroke="black" d="M118.178,-180.494C114.556,-157.616 106.485,-106.641 102.844,-83.6476"/>
</g>
<!-- a0&#45;&#45;b0 -->
<g id="edge4" class="edge"><title>a0&#45;&#45;b0</title>
<path fill="none" stroke="black" d="M27,-120.494C27,-97.6156 27,-46.6411 27,-23.6476"/>
</g>
<!-- a0&#45;&#45;c0 -->
<g id="edge5" class="edge"><title>a0&#45;&#45;c0</title>
<path fill="none" stroke="black" d="M40.5727,-120.362C53.9247,-109.897 74.1911,-94.0124 87.5133,-83.5707"/>
</g>
<!-- c0&#45;&#45;b0 -->
<g id="edge6" class="edge"><title>c0&#45;&#45;b0</title>
<path fill="none" stroke="black" d="M87.4273,-60.3619C74.0753,-49.8968 53.8089,-34.0124 40.4867,-23.5707"/>
</g>
</g>
</svg>
