<?xml version="1.0" encoding="UTF-8" standalone="no"?>
<!DOCTYPE svg PUBLIC "-//W3C//DTD SVG 1.1//EN"
 "http://www.w3.org/Graphics/SVG/1.1/DTD/svg11.dtd">
<!-- Generated by graphviz version 2.38.0 (20140413.2041)
 -->
<!-- Title: g Pages: 1 -->
<svg width="494pt" height="512pt"
 viewBox="0.00 0.00 494.00 512.00" xmlns="http://www.w3.org/2000/svg" xmlns:xlink="http://www.w3.org/1999/xlink">
<g id="graph0" class="graph" transform="scale(1 1) rotate(0) translate(4 508)">
<title>g</title>
<polygon fill="white" stroke="none" points="-4,4 -4,-508 490,-508 490,4 -4,4"/>
<!-- n0 -->
<g id="node1" class="node"><title>n0</title>
<polygon fill="lightgrey" stroke="black" points="326,-480.5 326,-503.5 380,-503.5 380,-480.5 326,-480.5"/>
<text text-anchor="middle" x="353" y="-488.3" font-family="Times,serif" font-size="14.00">O</text>
</g>
<!-- n1 -->
<g id="node2" class="node"><title>n1</title>
<polygon fill="none" stroke="#008b00" points="235,-420.5 235,-443.5 289,-443.5 289,-420.5 235,-420.5"/>
<text text-anchor="middle" x="262" y="-428.3" font-family="Times,serif" font-size="14.00">A</text>
</g>
<!-- n0&#45;&gt;n1 -->
<g id="edge2" class="edge"><title>n0&#45;&gt;n1</title>
<path fill="none" stroke="black" d="M336.309,-480.362C322.584,-471.614 302.916,-459.079 287.263,-449.101"/>
<polygon fill="black" stroke="black" points="288.899,-445.994 278.585,-443.571 285.137,-451.897 288.899,-445.994"/>
</g>
<!-- n21 -->
<g id="node4" class="node"><title>n21</title>
<polygon fill="none" stroke="#8b0000" points="326,-420.5 326,-443.5 380,-443.5 380,-420.5 326,-420.5"/>
<text text-anchor="middle" x="353" y="-428.3" font-family="Times,serif" font-size="14.00">B</text>
</g>
<!-- n0&#45;&gt;n21 -->
<g id="edge3" class="edge"><title>n0&#45;&gt;n21</title>
<path fill="none" stroke="black" d="M353,-480.362C353,-472.922 353,-462.743 353,-453.728"/>
<polygon fill="black" stroke="black" points="356.5,-453.571 353,-443.571 349.5,-453.571 356.5,-453.571"/>
</g>
<!-- n4 -->
<g id="node7" class="node"><title>n4</title>
<polygon fill="none" stroke="#0000cd" points="398,-420.5 398,-443.5 452,-443.5 452,-420.5 398,-420.5"/>
<text text-anchor="middle" x="425" y="-428.3" font-family="Times,serif" font-size="14.00">C</text>
</g>
<!-- n0&#45;&gt;n4 -->
<g id="edge1" class="edge"><title>n0&#45;&gt;n4</title>
<path fill="none" stroke="black" d="M366.206,-480.362C376.761,-471.859 391.758,-459.779 403.963,-449.947"/>
<polygon fill="black" stroke="black" points="406.286,-452.57 411.878,-443.571 401.895,-447.118 406.286,-452.57"/>
</g>
<!-- n2 -->
<g id="node3" class="node"><title>n2</title>
<polygon fill="none" stroke="#8b0000" points="72,-360.5 72,-383.5 126,-383.5 126,-360.5 72,-360.5"/>
<text text-anchor="middle" x="99" y="-368.3" font-family="Times,serif" font-size="14.00">B</text>
</g>
<!-- n1&#45;&gt;n2 -->
<g id="edge4" class="edge"><title>n1&#45;&gt;n2</title>
<path fill="none" stroke="black" d="M234.717,-421.292C207.603,-411.644 165.836,-396.782 135.799,-386.094"/>
<polygon fill="black" stroke="black" points="136.695,-382.698 126.1,-382.643 134.348,-389.293 136.695,-382.698"/>
</g>
<!-- n3 -->
<g id="node5" class="node"><title>n3</title>
<polygon fill="none" stroke="#0000cd" points="216,-360.5 216,-383.5 270,-383.5 270,-360.5 216,-360.5"/>
<text text-anchor="middle" x="243" y="-368.3" font-family="Times,serif" font-size="14.00">C</text>
</g>
<!-- n1&#45;&gt;n3 -->
<g id="edge5" class="edge"><title>n1&#45;&gt;n3</title>
<path fill="none" stroke="black" d="M258.515,-420.362C256.024,-412.758 252.596,-402.294 249.596,-393.135"/>
<polygon fill="black" stroke="black" points="252.902,-391.984 246.463,-383.571 246.25,-394.163 252.902,-391.984"/>
</g>
<!-- n31 -->
<g id="node6" class="node"><title>n31</title>
<polygon fill="lightgrey" stroke="black" points="288,-240.5 288,-263.5 342,-263.5 342,-240.5 288,-240.5"/>
<text text-anchor="middle" x="315" y="-248.3" font-family="Times,serif" font-size="14.00">O</text>
</g>
<!-- n1&#45;&gt;n31 -->
<g id="edge6" class="edge"><title>n1&#45;&gt;n31</title>
<path fill="none" stroke="black" d="M266.16,-420.256C269.762,-410.782 275.006,-396.57 279,-384 291.311,-345.252 303.365,-299.291 309.926,-273.399"/>
<polygon fill="black" stroke="black" points="313.343,-274.162 312.387,-263.611 306.554,-272.456 313.343,-274.162"/>
</g>
<!-- n7 -->
<g id="node9" class="node"><title>n7</title>
<polygon fill="none" stroke="#0000cd" points="0,-300.5 0,-323.5 54,-323.5 54,-300.5 0,-300.5"/>
<text text-anchor="middle" x="27" y="-308.3" font-family="Times,serif" font-size="14.00">C</text>
</g>
<!-- n2&#45;&gt;n7 -->
<g id="edge9" class="edge"><title>n2&#45;&gt;n7</title>
<path fill="none" stroke="black" d="M85.7941,-360.362C75.2388,-351.859 60.2423,-339.779 48.0371,-329.947"/>
<polygon fill="black" stroke="black" points="50.1054,-327.118 40.1222,-323.571 45.7141,-332.57 50.1054,-327.118"/>
</g>
<!-- n8 -->
<g id="node10" class="node"><title>n8</title>
<polygon fill="lightgrey" stroke="black" points="72,-300.5 72,-323.5 126,-323.5 126,-300.5 72,-300.5"/>
<text text-anchor="middle" x="99" y="-308.3" font-family="Times,serif" font-size="14.00">O</text>
</g>
<!-- n2&#45;&gt;n8 -->
<g id="edge7" class="edge"><title>n2&#45;&gt;n8</title>
<path fill="none" stroke="black" d="M99,-360.362C99,-352.922 99,-342.743 99,-333.728"/>
<polygon fill="black" stroke="black" points="102.5,-333.571 99,-323.571 95.5001,-333.571 102.5,-333.571"/>
</g>
<!-- n10 -->
<g id="node12" class="node"><title>n10</title>
<polygon fill="none" stroke="black" points="326,-360.5 326,-383.5 380,-383.5 380,-360.5 326,-360.5"/>
<text text-anchor="middle" x="353" y="-368.3" font-family="Times,serif" font-size="14.00">...</text>
</g>
<!-- n21&#45;&gt;n10 -->
<g id="edge13" class="edge"><title>n21&#45;&gt;n10</title>
<path fill="none" stroke="black" d="M353,-420.362C353,-412.922 353,-402.743 353,-393.728"/>
<polygon fill="black" stroke="black" points="356.5,-393.571 353,-383.571 349.5,-393.571 356.5,-393.571"/>
</g>
<!-- n50 -->
<g id="node13" class="node"><title>n50</title>
<polygon fill="none" stroke="#8b0000" points="144,-300.5 144,-323.5 198,-323.5 198,-300.5 144,-300.5"/>
<text text-anchor="middle" x="171" y="-308.3" font-family="Times,serif" font-size="14.00">B</text>
</g>
<!-- n3&#45;&gt;n50 -->
<g id="edge14" class="edge"><title>n3&#45;&gt;n50</title>
<path fill="none" stroke="black" d="M229.794,-360.362C219.239,-351.859 204.242,-339.779 192.037,-329.947"/>
<polygon fill="black" stroke="black" points="194.105,-327.118 184.122,-323.571 189.714,-332.57 194.105,-327.118"/>
</g>
<!-- n51 -->
<g id="node14" class="node"><title>n51</title>
<polygon fill="lightgrey" stroke="black" points="216,-300.5 216,-323.5 270,-323.5 270,-300.5 216,-300.5"/>
<text text-anchor="middle" x="243" y="-308.3" font-family="Times,serif" font-size="14.00">O</text>
</g>
<!-- n3&#45;&gt;n51 -->
<g id="edge16" class="edge"><title>n3&#45;&gt;n51</title>
<path fill="none" stroke="black" d="M243,-360.362C243,-352.922 243,-342.743 243,-333.728"/>
<polygon fill="black" stroke="black" points="246.5,-333.571 243,-323.571 239.5,-333.571 246.5,-333.571"/>
</g>
<!-- n77 -->
<g id="node22" class="node"><title>n77</title>
<polygon fill="none" stroke="#8b0000" points="288,-180.5 288,-203.5 342,-203.5 342,-180.5 288,-180.5"/>
<text text-anchor="middle" x="315" y="-188.3" font-family="Times,serif" font-size="14.00">B</text>
</g>
<!-- n31&#45;&gt;n77 -->
<g id="edge19" class="edge"><title>n31&#45;&gt;n77</title>
<path fill="none" stroke="black" d="M315,-240.362C315,-232.922 315,-222.743 315,-213.728"/>
<polygon fill="black" stroke="black" points="318.5,-213.571 315,-203.571 311.5,-213.571 318.5,-213.571"/>
</g>
<!-- n88 -->
<g id="node23" class="node"><title>n88</title>
<polygon fill="none" stroke="#0000cd" points="360,-180.5 360,-203.5 414,-203.5 414,-180.5 360,-180.5"/>
<text text-anchor="middle" x="387" y="-188.3" font-family="Times,serif" font-size="14.00">C</text>
</g>
<!-- n31&#45;&gt;n88 -->
<g id="edge20" class="edge"><title>n31&#45;&gt;n88</title>
<path fill="none" stroke="black" d="M328.206,-240.362C338.761,-231.859 353.758,-219.779 365.963,-209.947"/>
<polygon fill="black" stroke="black" points="368.286,-212.57 373.878,-203.571 363.895,-207.118 368.286,-212.57"/>
</g>
<!-- n5 -->
<g id="node8" class="node"><title>n5</title>
<polygon fill="none" stroke="black" points="398,-360.5 398,-383.5 452,-383.5 452,-360.5 398,-360.5"/>
<text text-anchor="middle" x="425" y="-368.3" font-family="Times,serif" font-size="14.00">...</text>
</g>
<!-- n4&#45;&gt;n5 -->
<g id="edge12" class="edge"><title>n4&#45;&gt;n5</title>
<path fill="none" stroke="black" d="M425,-420.362C425,-412.922 425,-402.743 425,-393.728"/>
<polygon fill="black" stroke="black" points="428.5,-393.571 425,-383.571 421.5,-393.571 428.5,-393.571"/>
</g>
<!-- n90 -->
<g id="node24" class="node"><title>n90</title>
<polygon fill="lightgrey" stroke="black" points="0,-240.5 0,-263.5 54,-263.5 54,-240.5 0,-240.5"/>
<text text-anchor="middle" x="27" y="-248.3" font-family="Times,serif" font-size="14.00">O</text>
</g>
<!-- n7&#45;&gt;n90 -->
<g id="edge10" class="edge"><title>n7&#45;&gt;n90</title>
<path fill="none" stroke="black" d="M27,-300.362C27,-292.922 27,-282.743 27,-273.728"/>
<polygon fill="black" stroke="black" points="30.5001,-273.571 27,-263.571 23.5001,-273.571 30.5001,-273.571"/>
</g>
<!-- n9 -->
<g id="node11" class="node"><title>n9</title>
<polygon fill="none" stroke="#0000cd" points="72,-240.5 72,-263.5 126,-263.5 126,-240.5 72,-240.5"/>
<text text-anchor="middle" x="99" y="-248.3" font-family="Times,serif" font-size="14.00">C</text>
</g>
<!-- n8&#45;&gt;n9 -->
<g id="edge8" class="edge"><title>n8&#45;&gt;n9</title>
<path fill="none" stroke="black" d="M99,-300.362C99,-292.922 99,-282.743 99,-273.728"/>
<polygon fill="black" stroke="black" points="102.5,-273.571 99,-263.571 95.5001,-273.571 102.5,-273.571"/>
</g>
<!-- n91 -->
<g id="node25" class="node"><title>n91</title>
<polygon fill="lightgrey" stroke="black" points="72,-180.5 72,-203.5 126,-203.5 126,-180.5 72,-180.5"/>
<text text-anchor="middle" x="99" y="-188.3" font-family="Times,serif" font-size="14.00">O</text>
</g>
<!-- n9&#45;&gt;n91 -->
<g id="edge11" class="edge"><title>n9&#45;&gt;n91</title>
<path fill="none" stroke="black" d="M99,-240.362C99,-232.922 99,-222.743 99,-213.728"/>
<polygon fill="black" stroke="black" points="102.5,-213.571 99,-203.571 95.5001,-213.571 102.5,-213.571"/>
</g>
<!-- n92 -->
<g id="node26" class="node"><title>n92</title>
<polygon fill="lightgrey" stroke="black" points="144,-240.5 144,-263.5 198,-263.5 198,-240.5 144,-240.5"/>
<text text-anchor="middle" x="171" y="-248.3" font-family="Times,serif" font-size="14.00">O</text>
</g>
<!-- n50&#45;&gt;n92 -->
<g id="edge15" class="edge"><title>n50&#45;&gt;n92</title>
<path fill="none" stroke="black" d="M171,-300.362C171,-292.922 171,-282.743 171,-273.728"/>
<polygon fill="black" stroke="black" points="174.5,-273.571 171,-263.571 167.5,-273.571 174.5,-273.571"/>
</g>
<!-- n52 -->
<g id="node15" class="node"><title>n52</title>
<polygon fill="none" stroke="#8b0000" points="216,-240.5 216,-263.5 270,-263.5 270,-240.5 216,-240.5"/>
<text text-anchor="middle" x="243" y="-248.3" font-family="Times,serif" font-size="14.00">B</text>
</g>
<!-- n51&#45;&gt;n52 -->
<g id="edge17" class="edge"><title>n51&#45;&gt;n52</title>
<path fill="none" stroke="black" d="M243,-300.362C243,-292.922 243,-282.743 243,-273.728"/>
<polygon fill="black" stroke="black" points="246.5,-273.571 243,-263.571 239.5,-273.571 246.5,-273.571"/>
</g>
<!-- n93 -->
<g id="node27" class="node"><title>n93</title>
<polygon fill="lightgrey" stroke="black" points="216,-180.5 216,-203.5 270,-203.5 270,-180.5 216,-180.5"/>
<text text-anchor="middle" x="243" y="-188.3" font-family="Times,serif" font-size="14.00">O</text>
</g>
<!-- n52&#45;&gt;n93 -->
<g id="edge18" class="edge"><title>n52&#45;&gt;n93</title>
<path fill="none" stroke="black" d="M243,-240.362C243,-232.922 243,-222.743 243,-213.728"/>
<polygon fill="black" stroke="black" points="246.5,-213.571 243,-203.571 239.5,-213.571 246.5,-213.571"/>
</g>
<!-- n70 -->
<g id="node16" class="node"><title>n70</title>
<polygon fill="none" stroke="#0000cd" points="216,-120.5 216,-143.5 270,-143.5 270,-120.5 216,-120.5"/>
<text text-anchor="middle" x="243" y="-128.3" font-family="Times,serif" font-size="14.00">C</text>
</g>
<!-- n96 -->
<g id="node30" class="node"><title>n96</title>
<polygon fill="lightgrey" stroke="black" points="216,-60.5 216,-83.5 270,-83.5 270,-60.5 216,-60.5"/>
<text text-anchor="middle" x="243" y="-68.3" font-family="Times,serif" font-size="14.00">O</text>
</g>
<!-- n70&#45;&gt;n96 -->
<g id="edge23" class="edge"><title>n70&#45;&gt;n96</title>
<path fill="none" stroke="black" d="M243,-120.362C243,-112.922 243,-102.743 243,-93.7276"/>
<polygon fill="black" stroke="black" points="246.5,-93.5706 243,-83.5707 239.5,-93.5707 246.5,-93.5706"/>
</g>
<!-- n71 -->
<g id="node17" class="node"><title>n71</title>
<polygon fill="lightgrey" stroke="black" points="288,-120.5 288,-143.5 342,-143.5 342,-120.5 288,-120.5"/>
<text text-anchor="middle" x="315" y="-128.3" font-family="Times,serif" font-size="14.00">O</text>
</g>
<!-- n72 -->
<g id="node18" class="node"><title>n72</title>
<polygon fill="none" stroke="#0000cd" points="288,-60.5 288,-83.5 342,-83.5 342,-60.5 288,-60.5"/>
<text text-anchor="middle" x="315" y="-68.3" font-family="Times,serif" font-size="14.00">C</text>
</g>
<!-- n71&#45;&gt;n72 -->
<g id="edge25" class="edge"><title>n71&#45;&gt;n72</title>
<path fill="none" stroke="black" d="M315,-120.362C315,-112.922 315,-102.743 315,-93.7276"/>
<polygon fill="black" stroke="black" points="318.5,-93.5706 315,-83.5707 311.5,-93.5707 318.5,-93.5706"/>
</g>
<!-- n97 -->
<g id="node31" class="node"><title>n97</title>
<polygon fill="lightgrey" stroke="black" points="288,-0.5 288,-23.5 342,-23.5 342,-0.5 288,-0.5"/>
<text text-anchor="middle" x="315" y="-8.3" font-family="Times,serif" font-size="14.00">O</text>
</g>
<!-- n72&#45;&gt;n97 -->
<g id="edge24" class="edge"><title>n72&#45;&gt;n97</title>
<path fill="none" stroke="black" d="M315,-60.3619C315,-52.9219 315,-42.7427 315,-33.7276"/>
<polygon fill="black" stroke="black" points="318.5,-33.5706 315,-23.5707 311.5,-33.5707 318.5,-33.5706"/>
</g>
<!-- n80 -->
<g id="node19" class="node"><title>n80</title>
<polygon fill="none" stroke="#8b0000" points="360,-120.5 360,-143.5 414,-143.5 414,-120.5 360,-120.5"/>
<text text-anchor="middle" x="387" y="-128.3" font-family="Times,serif" font-size="14.00">B</text>
</g>
<!-- n94 -->
<g id="node28" class="node"><title>n94</title>
<polygon fill="lightgrey" stroke="black" points="360,-60.5 360,-83.5 414,-83.5 414,-60.5 360,-60.5"/>
<text text-anchor="middle" x="387" y="-68.3" font-family="Times,serif" font-size="14.00">O</text>
</g>
<!-- n80&#45;&gt;n94 -->
<g id="edge27" class="edge"><title>n80&#45;&gt;n94</title>
<path fill="none" stroke="black" d="M387,-120.362C387,-112.922 387,-102.743 387,-93.7276"/>
<polygon fill="black" stroke="black" points="390.5,-93.5706 387,-83.5707 383.5,-93.5707 390.5,-93.5706"/>
</g>
<!-- n81 -->
<g id="node20" class="node"><title>n81</title>
<polygon fill="lightgrey" stroke="black" points="432,-120.5 432,-143.5 486,-143.5 486,-120.5 432,-120.5"/>
<text text-anchor="middle" x="459" y="-128.3" font-family="Times,serif" font-size="14.00">O</text>
</g>
<!-- n82 -->
<g id="node21" class="node"><title>n82</title>
<polygon fill="none" stroke="#8b0000" points="432,-60.5 432,-83.5 486,-83.5 486,-60.5 432,-60.5"/>
<text text-anchor="middle" x="459" y="-68.3" font-family="Times,serif" font-size="14.00">B</text>
</g>
<!-- n81&#45;&gt;n82 -->
<g id="edge29" class="edge"><title>n81&#45;&gt;n82</title>
<path fill="none" stroke="black" d="M459,-120.362C459,-112.922 459,-102.743 459,-93.7276"/>
<polygon fill="black" stroke="black" points="462.5,-93.5706 459,-83.5707 455.5,-93.5707 462.5,-93.5706"/>
</g>
<!-- n95 -->
<g id="node29" class="node"><title>n95</title>
<polygon fill="lightgrey" stroke="black" points="432,-0.5 432,-23.5 486,-23.5 486,-0.5 432,-0.5"/>
<text text-anchor="middle" x="459" y="-8.3" font-family="Times,serif" font-size="14.00">O</text>
</g>
<!-- n82&#45;&gt;n95 -->
<g id="edge30" class="edge"><title>n82&#45;&gt;n95</title>
<path fill="none" stroke="black" d="M459,-60.3619C459,-52.9219 459,-42.7427 459,-33.7276"/>
<polygon fill="black" stroke="black" points="462.5,-33.5706 459,-23.5707 455.5,-33.5707 462.5,-33.5706"/>
</g>
<!-- n77&#45;&gt;n70 -->
<g id="edge21" class="edge"><title>n77&#45;&gt;n70</title>
<path fill="none" stroke="black" d="M301.794,-180.362C291.239,-171.859 276.242,-159.779 264.037,-149.947"/>
<polygon fill="black" stroke="black" points="266.105,-147.118 256.122,-143.571 261.714,-152.57 266.105,-147.118"/>
</g>
<!-- n77&#45;&gt;n71 -->
<g id="edge22" class="edge"><title>n77&#45;&gt;n71</title>
<path fill="none" stroke="black" d="M315,-180.362C315,-172.922 315,-162.743 315,-153.728"/>
<polygon fill="black" stroke="black" points="318.5,-153.571 315,-143.571 311.5,-153.571 318.5,-153.571"/>
</g>
<!-- n88&#45;&gt;n80 -->
<g id="edge26" class="edge"><title>n88&#45;&gt;n80</title>
<path fill="none" stroke="black" d="M387,-180.362C387,-172.922 387,-162.743 387,-153.728"/>
<polygon fill="black" stroke="black" points="390.5,-153.571 387,-143.571 383.5,-153.571 390.5,-153.571"/>
</g>
<!-- n88&#45;&gt;n81 -->
<g id="edge28" class="edge"><title>n88&#45;&gt;n81</title>
<path fill="none" stroke="black" d="M400.206,-180.362C410.761,-171.859 425.758,-159.779 437.963,-149.947"/>
<polygon fill="black" stroke="black" points="440.286,-152.57 445.878,-143.571 435.895,-147.118 440.286,-152.57"/>
</g>
</g>
</svg>
