<?xml version="1.0" encoding="UTF-8" standalone="no"?>
<!DOCTYPE svg PUBLIC "-//W3C//DTD SVG 1.1//EN"
 "http://www.w3.org/Graphics/SVG/1.1/DTD/svg11.dtd">
<!-- Generated by graphviz version 2.38.0 (20140413.2041)
 -->
<!-- Title: B Pages: 1 -->
<svg width="134pt" height="152pt"
 viewBox="0.00 0.00 134.00 152.00" xmlns="http://www.w3.org/2000/svg" xmlns:xlink="http://www.w3.org/1999/xlink">
<g id="graph0" class="graph" transform="scale(1 1) rotate(0) translate(4 148)">
<title>B</title>
<polygon fill="white" stroke="none" points="-4,4 -4,-148 130,-148 130,4 -4,4"/>
<!-- A -->
<g id="node1" class="node"><title>A</title>
<polygon fill="none" stroke="black" points="72,-120.5 72,-143.5 126,-143.5 126,-120.5 72,-120.5"/>
<text text-anchor="middle" x="99" y="-128.3" font-family="Times,serif" font-size="14.00">A</text>
</g>
<!-- B -->
<g id="node2" class="node"><title>B</title>
<polygon fill="none" stroke="black" points="17,-60.5 17,-83.5 71,-83.5 71,-60.5 17,-60.5"/>
<text text-anchor="middle" x="44" y="-68.3" font-family="Times,serif" font-size="14.00">B</text>
</g>
<!-- A&#45;&#45;B -->
<g id="edge1" class="edge"><title>A&#45;&#45;B</title>
<path fill="none" stroke="black" d="M88.9122,-120.362C78.9884,-109.897 63.9255,-94.0124 54.0239,-83.5707"/>
</g>
<!-- C -->
<g id="node4" class="node"><title>C</title>
<polygon fill="none" stroke="black" points="44,-0.5 44,-23.5 98,-23.5 98,-0.5 44,-0.5"/>
<text text-anchor="middle" x="71" y="-8.3" font-family="Times,serif" font-size="14.00">C</text>
</g>
<!-- B&#45;&#45;C -->
<g id="edge3" class="edge"><title>B&#45;&#45;C</title>
<path fill="none" stroke="black" d="M48.9522,-60.3619C53.8239,-49.8968 61.2184,-34.0124 66.0792,-23.5707"/>
</g>
<!-- O -->
<g id="node3" class="node"><title>O</title>
<polygon fill="none" stroke="black" points="0,-120.5 0,-143.5 54,-143.5 54,-120.5 0,-120.5"/>
<text text-anchor="middle" x="27" y="-128.3" font-family="Times,serif" font-size="14.00">O</text>
</g>
<!-- O&#45;&#45;B -->
<g id="edge2" class="edge"><title>O&#45;&#45;B</title>
<path fill="none" stroke="black" d="M30.1181,-120.362C33.1854,-109.897 37.8412,-94.0124 40.9017,-83.5707"/>
</g>
<!-- C&#45;&#45;A -->
<g id="edge4" class="edge"><title>C&#45;&#45;A</title>
<path fill="none" stroke="black" d="M73.4971,-23.5236C78.7827,-45.7986 91.0548,-97.5168 96.416,-120.11"/>
</g>
</g>
</svg>
